<?xml version="1.0" encoding="UTF-8"?>
<svg version="1.1" xmlns="http://www.w3.org/2000/svg" width="64" height="64">
<path d="M0 0 C1.03777588 -0.00315216 2.07555176 -0.00630432 3.14477539 -0.009552 C4.83848267 -0.00651566 4.83848267 -0.00651566 6.56640625 -0.00341797 C7.71681396 -0.00437469 8.86722168 -0.00533142 10.05249023 -0.00631714 C12.49039769 -0.00699916 14.92830695 -0.00514337 17.36621094 -0.00097656 C21.11267143 0.00437136 24.85901202 -0.00092086 28.60546875 -0.00732422 C30.96744818 -0.00666344 33.32942754 -0.00538229 35.69140625 -0.00341797 C36.82054443 -0.0054422 37.94968262 -0.00746643 39.11303711 -0.009552 C40.15081299 -0.00639984 41.18858887 -0.00324768 42.2578125 0 C43.1763501 0.00079559 44.0948877 0.00159119 45.04125977 0.00241089 C47.12890625 0.12939453 47.12890625 0.12939453 48.12890625 1.12939453 C48.22811488 3.0570127 48.2568999 4.98828807 48.25830078 6.91845703 C48.26145294 8.15644043 48.2646051 9.39442383 48.26785278 10.66992188 C48.266063 12.03141312 48.26401205 13.39290404 48.26171875 14.75439453 C48.26239184 16.14062517 48.26336191 17.5268557 48.26461792 18.91308594 C48.26609465 21.82178875 48.26394115 24.7304609 48.25927734 27.63916016 C48.25358006 31.37536052 48.25685919 35.11148905 48.26284981 38.84768677 C48.2664561 41.71118719 48.26531652 44.57467046 48.26272202 47.43817139 C48.26205293 48.81614185 48.26288051 50.19411385 48.26520157 51.57208252 C48.26772917 53.49483207 48.26319649 55.41758705 48.25830078 57.34033203 C48.25750519 58.43651855 48.25670959 59.53270508 48.25588989 60.66210938 C48.12890625 63.12939453 48.12890625 63.12939453 47.12890625 64.12939453 C45.50763202 64.22801051 43.88208257 64.2573822 42.2578125 64.25878906 C40.70114868 64.2635173 40.70114868 64.2635173 39.11303711 64.26834106 C37.41932983 64.26530472 37.41932983 64.26530472 35.69140625 64.26220703 C33.96579468 64.26364212 33.96579468 64.26364212 32.20532227 64.2651062 C29.76741481 64.26578822 27.32950555 64.26393243 24.89160156 64.25976562 C21.14514107 64.25441771 17.39880048 64.25970992 13.65234375 64.26611328 C11.29036432 64.2654525 8.92838496 64.26417135 6.56640625 64.26220703 C5.43726807 64.26423126 4.30812988 64.26625549 3.14477539 64.26834106 C1.58811157 64.26361282 1.58811157 64.26361282 0 64.25878906 C-0.9185376 64.25799347 -1.8370752 64.25719788 -2.78344727 64.25637817 C-4.87109375 64.12939453 -4.87109375 64.12939453 -5.87109375 63.12939453 C-5.97030238 61.20177636 -5.9990874 59.27050099 -6.00048828 57.34033203 C-6.00364044 56.10234863 -6.0067926 54.86436523 -6.01004028 53.58886719 C-6.0082505 52.22737594 -6.00619955 50.86588502 -6.00390625 49.50439453 C-6.00457934 48.11816389 -6.00554941 46.73193336 -6.00680542 45.34570312 C-6.00828215 42.43700031 -6.00612865 39.52832816 -6.00146484 36.61962891 C-5.99576756 32.88342855 -5.99904669 29.14730002 -6.00503731 25.41110229 C-6.0086436 22.54760187 -6.00750402 19.6841186 -6.00490952 16.82061768 C-6.00424043 15.44264721 -6.00506801 14.06467521 -6.00738907 12.68670654 C-6.00991667 10.76395699 -6.00538399 8.84120201 -6.00048828 6.91845703 C-5.99969269 5.82227051 -5.99889709 4.72608398 -5.99807739 3.59667969 C-5.77419922 -0.75326087 -3.87068362 0.0033526 0 0 Z " fill="#CED3E6" transform="translate(10.87109375,-0.12939453125)"/>
<path d="M0 0 C0.89460937 -0.00128906 1.78921875 -0.00257812 2.7109375 -0.00390625 C3.65195313 -0.00003906 4.59296875 0.00382812 5.5625 0.0078125 C6.97402344 0.00201172 6.97402344 0.00201172 8.4140625 -0.00390625 C9.75597656 -0.00197266 9.75597656 -0.00197266 11.125 0 C11.95128906 0.00112793 12.77757813 0.00225586 13.62890625 0.00341797 C15.5625 0.1328125 15.5625 0.1328125 16.5625 1.1328125 C16.6565067 3.09650403 16.67993381 5.06360449 16.67602539 7.02954102 C16.67594986 8.29077286 16.67587433 9.5520047 16.67579651 10.85145569 C16.6706891 12.23821044 16.66547309 13.62496479 16.66015625 15.01171875 C16.65829201 16.42276459 16.65686814 17.83381107 16.65586853 19.24485779 C16.65204379 22.96521785 16.6422139 26.6855391 16.63116455 30.40588379 C16.62094948 34.19962031 16.61637071 37.99336308 16.61132812 41.78710938 C16.60059158 49.23569481 16.5835157 56.68424822 16.5625 64.1328125 C13.08335059 64.16169064 9.60423169 64.17956937 6.125 64.1953125 C4.63516602 64.20788086 4.63516602 64.20788086 3.11523438 64.22070312 C2.17099609 64.22392578 1.22675781 64.22714844 0.25390625 64.23046875 C-0.62064209 64.23570557 -1.49519043 64.24094238 -2.39624023 64.24633789 C-4.4375 64.1328125 -4.4375 64.1328125 -5.4375 63.1328125 C-5.53670863 61.20519433 -5.56549365 59.27391896 -5.56689453 57.34375 C-5.57004669 56.1057666 -5.57319885 54.8677832 -5.57644653 53.59228516 C-5.57465675 52.23079391 -5.5726058 50.86930299 -5.5703125 49.5078125 C-5.57098559 48.12158186 -5.57195566 46.73535133 -5.57321167 45.34912109 C-5.5746884 42.44041828 -5.5725349 39.53174613 -5.56787109 36.62304688 C-5.56217381 32.88684652 -5.56545294 29.15071798 -5.57144356 25.41452026 C-5.57504985 22.55101984 -5.57391027 19.68753657 -5.57131577 16.82403564 C-5.57064668 15.44606518 -5.57147426 14.06809318 -5.57379532 12.69012451 C-5.57632292 10.76737496 -5.57179024 8.84461998 -5.56689453 6.921875 C-5.56609894 5.82568848 -5.56530334 4.72950195 -5.56448364 3.60009766 C-5.34918985 -0.58304877 -3.74507193 0.00511223 0 0 Z " fill="#F55F79" transform="translate(10.4375,-0.1328125)"/>
<path d="M0 0 C2.64 0 5.28 0 8 0 C7.67 0.66 7.34 1.32 7 2 C10.63 2.33 14.26 2.66 18 3 C18 8.94 18 14.88 18 21 C14.37 21.33 10.74 21.66 7 22 C7 22.99 7 23.98 7 25 C10.63 25 14.26 25 18 25 C18 26.65 18 28.3 18 30 C14.37 30 10.74 30 7 30 C7 30.66 7 31.32 7 32 C9.64 32 12.28 32 15 32 C15 32.66 15 33.32 15 34 C12.36 34 9.72 34 7 34 C7 35.32 7 36.64 7 38 C10.63 38.33 14.26 38.66 18 39 C18 40.32 18 41.64 18 43 C14.37 43 10.74 43 7 43 C7 43.99 7 44.98 7 46 C6.01 46 5.02 46 4 46 C4 47.65 4 49.3 4 51 C4.99 51 5.98 51 7 51 C7 51.99 7 52.98 7 54 C6.01 54 5.02 54 4 54 C4 55.65 4 57.3 4 59 C4.99 59 5.98 59 7 59 C7.33 59.99 7.66 60.98 8 62 C5.36 62 2.72 62 0 62 C0 41.54 0 21.08 0 0 Z " fill="#BD3D84" transform="translate(5,1)"/>
<path d="M0 0 C0.66 0 1.32 0 2 0 C1.95875 0.78375 1.9175 1.5675 1.875 2.375 C1.71271266 5.16116119 1.71271266 5.16116119 4 7 C6.22128555 7.02308597 6.22128555 7.02308597 8.625 6.625 C9.44226562 6.51414062 10.25953125 6.40328125 11.1015625 6.2890625 C11.72804688 6.19367187 12.35453125 6.09828125 13 6 C13 5.34 13 4.68 13 4 C12.34 4 11.68 4 11 4 C10.34 2.68 9.68 1.36 9 0 C12.3 0 15.6 0 19 0 C19 3.63 19 7.26 19 11 C13.39 11 7.78 11 2 11 C2 11.66 2 12.32 2 13 C7.61 13 13.22 13 19 13 C19 13.66 19 14.32 19 15 C13.06 15 7.12 15 1 15 C1 15.66 1 16.32 1 17 C6.94 16.67 12.88 16.34 19 16 C19 16.66 19 17.32 19 18 C13.06 18 7.12 18 1 18 C1 18.66 1 19.32 1 20 C6.94 20 12.88 20 19 20 C19 25 19 25 17.79296875 26.80078125 C15.48243278 28.34617241 14.06729369 28.30727364 11.3125 28.1875 C10.50425781 28.16042969 9.69601563 28.13335937 8.86328125 28.10546875 C8.24839844 28.07066406 7.63351563 28.03585938 7 28 C7 28.66 7 29.32 7 30 C8.98 30 10.96 30 13 30 C12.67 30.66 12.34 31.32 12 32 C4.87591241 34.2189781 4.87591241 34.2189781 0 33 C0 22.11 0 11.22 0 0 Z " fill="#FAFAFC" transform="translate(29,5)"/>
<path d="M0 0 C1.65 0.33 3.3 0.66 5 1 C5.02312737 9.06652174 5.04091709 17.13302972 5.05181217 25.19957638 C5.05704014 28.94483037 5.06413622 32.69006176 5.07543945 36.43530273 C5.08627141 40.04681687 5.09227749 43.65830921 5.09487724 47.26983833 C5.09673094 48.65060329 5.10035049 50.031367 5.10573006 51.41212273 C5.11294447 53.33975952 5.11340809 55.26741807 5.11352539 57.19506836 C5.115746 58.29427109 5.11796661 59.39347382 5.12025452 60.52598572 C5 63 5 63 4 64 C2.65732587 64.08631874 1.31025678 64.10706473 -0.03515625 64.09765625 C-0.84404297 64.09443359 -1.65292969 64.09121094 -2.48632812 64.08789062 C-3.33646484 64.07951172 -4.18660156 64.07113281 -5.0625 64.0625 C-5.91650391 64.05798828 -6.77050781 64.05347656 -7.65039062 64.04882812 C-9.76695663 64.03700373 -11.88348685 64.01906769 -14 64 C-10.29851889 59.49190072 -6.59350325 55.60918113 -2 52 C-2 55.63 -2 59.26 -2 63 C-0.515 62.505 -0.515 62.505 1 62 C1.02314533 54.21151879 1.04092629 46.4230456 1.05181217 38.63453865 C1.05703619 35.01822828 1.06412515 31.40194139 1.07543945 27.78564453 C1.08628538 24.29731896 1.09228047 20.80901602 1.09487724 17.3206749 C1.09763081 15.33862308 1.1054401 13.3565804 1.11329651 11.37454224 C1.11337204 10.17344818 1.11344757 8.97235413 1.11352539 7.73486328 C1.11685631 6.14268478 1.11685631 6.14268478 1.12025452 4.51834106 C1.17014427 2.00358605 1.17014427 2.00358605 0 0 Z " fill="#737EC5" transform="translate(54,0)"/>
<path d="M0 0 C0.36516854 4.50374532 0.36516854 4.50374532 -1.21875 6.65625 C-3.51985446 8.39217091 -4.83982544 8.31131194 -7.6875 8.1875 C-8.89986328 8.14689453 -8.89986328 8.14689453 -10.13671875 8.10546875 C-10.75160156 8.07066406 -11.36648437 8.03585938 -12 8 C-12 8.66 -12 9.32 -12 10 C-10.02 10 -8.04 10 -6 10 C-6.33 10.66 -6.66 11.32 -7 12 C-14.64288227 14.38056989 -14.64288227 14.38056989 -19 13 C-19.02698189 11.37509046 -19.04638757 9.75005367 -19.0625 8.125 C-19.07410156 7.22007813 -19.08570312 6.31515625 -19.09765625 5.3828125 C-19 3 -19 3 -18 1 C-17.39671875 1.01160156 -16.7934375 1.02320312 -16.171875 1.03515625 C-15.37265625 1.04417969 -14.5734375 1.05320312 -13.75 1.0625 C-12.96109375 1.07410156 -12.1721875 1.08570312 -11.359375 1.09765625 C-7.45346364 0.93598773 -3.97566969 -0.11043527 0 0 Z " fill="#EFF2F6" transform="translate(48,25)"/>
<path d="M0 0 C0 13.53 0 27.06 0 41 C-1.98 41.495 -1.98 41.495 -4 42 C-4 28.47 -4 14.94 -4 1 C-1 0 -1 0 0 0 Z " fill="#AEC1E4" transform="translate(56,21)"/>
<path d="M0 0 C4.62 0 9.24 0 14 0 C14 5.94 14 11.88 14 18 C13.34 16.68 12.68 15.36 12 14 C11.278125 13.360625 10.55625 12.72125 9.8125 12.0625 C9.214375 11.381875 8.61625 10.70125 8 10 C8.25 7.25 8.25 7.25 9 5 C7.35 5 5.7 5 4 5 C4.33 6.98 4.66 8.96 5 11 C2.525 12.485 2.525 12.485 0 14 C0 9.38 0 4.76 0 0 Z " fill="#8CC9F1" transform="translate(9,4)"/>
<path d="M0 0 C1.2065625 0.0309375 1.2065625 0.0309375 2.4375 0.0625 C3.5625 4.8125 3.5625 4.8125 2.4375 7.0625 C3.0975 7.475 3.7575 7.8875 4.4375 8.3125 C5.0975 8.89 5.7575 9.4675 6.4375 10.0625 C6.4375 11.3825 6.4375 12.7025 6.4375 14.0625 C2.1475 14.0625 -2.1425 14.0625 -6.5625 14.0625 C-5.5625 9.0625 -5.5625 9.0625 -3.9375 7.5625 C-3.48375 7.0675 -3.03 6.5725 -2.5625 6.0625 C-2.88291397 3.45969432 -2.88291397 3.45969432 -3.5625 1.0625 C-2.5625 0.0625 -2.5625 0.0625 0 0 Z " fill="#41406E" transform="translate(15.5625,7.9375)"/>
<path d="M0 0 C1.98 0 3.96 0 6 0 C6 0.99 6 1.98 6 3 C5.01 3 4.02 3 3 3 C3 4.65 3 6.3 3 8 C3.99 8 4.98 8 6 8 C6 8.99 6 9.98 6 11 C5.01 11 4.02 11 3 11 C3 12.65 3 14.3 3 16 C3.99 16 4.98 16 6 16 C6.33 16.99 6.66 17.98 7 19 C4.69 19 2.38 19 0 19 C0 12.73 0 6.46 0 0 Z " fill="#A0176E" transform="translate(6,44)"/>
<path d="M0 0 C0 3.63 0 7.26 0 11 C0.66 11.33 1.32 11.66 2 12 C-2.62 12 -7.24 12 -12 12 C-1.88235294 0 -1.88235294 0 0 0 Z " fill="#8FA9E1" transform="translate(52,52)"/>
<path d="M0 0 C1.32 0.33 2.64 0.66 4 1 C4 7.27 4 13.54 4 20 C2.68 20 1.36 20 0 20 C0 13.4 0 6.8 0 0 Z " fill="#F1F3F9" transform="translate(52,1)"/>
<path d="M0 0 C1.51400391 0.01740234 1.51400391 0.01740234 3.05859375 0.03515625 C4.07050781 0.04417969 5.08242188 0.05320313 6.125 0.0625 C7.29869141 0.07990234 7.29869141 0.07990234 8.49609375 0.09765625 C4.81777358 4.62381618 1.08523012 8.49190624 -3.50390625 12.09765625 C-3.53077904 10.28523573 -3.5502434 8.47270392 -3.56640625 6.66015625 C-3.57800781 5.65082031 -3.58960938 4.64148437 -3.6015625 3.6015625 C-3.46988459 0.22534083 -3.37622167 0.13167791 0 0 Z " fill="#BFCADA" transform="translate(43.50390625,50.90234375)"/>
<path d="M0 0 C4.29 0 8.58 0 13 0 C13.33 1.32 13.66 2.64 14 4 C13 5 13 5 10.05859375 5.09765625 C8.26615234 5.08025391 8.26615234 5.08025391 6.4375 5.0625 C4.64119141 5.04896484 4.64119141 5.04896484 2.80859375 5.03515625 C1.88175781 5.02355469 0.95492188 5.01195312 0 5 C0 3.35 0 1.7 0 0 Z " fill="#6BBB85" transform="translate(9,47)"/>
<path d="M0 0 C4.62 0 9.24 0 14 0 C14 1.32 14 2.64 14 4 C9.38 4 4.76 4 0 4 C0 2.68 0 1.36 0 0 Z " fill="#8FD1F7" transform="translate(9,40)"/>
<path d="M0 0 C1.98 0 3.96 0 6 0 C6.33 2.31 6.66 4.62 7 7 C2.25 8.125 2.25 8.125 0 7 C0 4.69 0 2.38 0 0 Z " fill="#FF9A84" transform="translate(16,52)"/>
<path d="M0 0 C3.3 0 6.6 0 10 0 C10 0.99 10 1.98 10 3 C6.7 3 3.4 3 0 3 C0 2.01 0 1.02 0 0 Z " fill="#FD7C7C" transform="translate(12,44)"/>
<path d="M0 0 C0.33 0 0.66 0 1 0 C1.04254356 1.99954746 1.04080783 4.00041636 1 6 C0 7 0 7 -3.0625 7.0625 C-4.5165625 7.0315625 -4.5165625 7.0315625 -6 7 C-5.02433888 5.83040013 -4.044375 4.66438823 -3.0625 3.5 C-2.51722656 2.8503125 -1.97195312 2.200625 -1.41015625 1.53125 C-0.71212891 0.77328125 -0.71212891 0.77328125 0 0 Z " fill="#737EC5" transform="translate(51,56)"/>
<path d="M0 0 C1.98 0 3.96 0 6 0 C6 0.99 6 1.98 6 3 C1.71 3 -2.58 3 -7 3 C-7 2.67 -7 2.34 -7 2 C-4.69 2 -2.38 2 0 2 C0 1.34 0 0.68 0 0 Z " fill="#E79295" transform="translate(16,37)"/>
<path d="M0 0 C2.475 0.495 2.475 0.495 5 1 C4.67 2.32 4.34 3.64 4 5 C2.68 5 1.36 5 0 5 C0 3.35 0 1.7 0 0 Z " fill="#FFBA70" transform="translate(18,55)"/>
</svg>
